<?xml version="1.0"?>
<svg xmlns="http://www.w3.org/2000/svg" viewBox="0 0 16 16">
    <path style="line-height:normal;text-indent:0;text-align:start;text-decoration-line:none;text-decoration-style:solid;text-decoration-color:#000;text-transform:none;block-progression:tb;isolation:auto;mix-blend-mode:normal" d="M 4.9960938 2 L 4.9960938 4.9960938 L 2 4.9960938 L 2 5.9960938 L 4.9960938 5.9960938 L 4.9960938 10.003906 L 2 10.003906 L 2 11.003906 L 4.9960938 11.003906 L 4.9960938 14 L 5.9960938 14 L 5.9960938 11.003906 L 10.003906 11.003906 L 10.003906 14 L 11.003906 14 L 11.003906 11.003906 L 14 11.003906 L 14 10.003906 L 11.003906 10.003906 L 11.003906 5.9960938 L 14 5.9960938 L 14 4.9960938 L 11.003906 4.9960938 L 11.003906 2 L 10.003906 2 L 10.003906 4.9960938 L 5.9960938 4.9960938 L 5.9960938 2 L 4.9960938 2 z M 5.9960938 5.9960938 L 10.003906 5.9960938 L 10.003906 10.003906 L 5.9960938 10.003906 L 5.9960938 5.9960938 z" font-weight="400" font-family="sans-serif" white-space="normal" overflow="visible"/>
</svg>
